<svg width="19" height="19" viewBox="0 0 19 19" fill="none" xmlns="http://www.w3.org/2000/svg">
<path d="M11.068 9.49989L18.0298 2.53805L18.0367 2.53123L18.0429 2.52389C18.225 2.31133 18.3201 2.03792 18.3093 1.75828C18.2985 1.47864 18.1826 1.21337 17.9847 1.01549C17.7868 0.817606 17.5215 0.70168 17.2419 0.690879C16.9622 0.680077 16.6888 0.775196 16.4763 0.957225L16.4689 0.963506L16.4621 0.970334L9.50038 7.93206L2.53855 0.961829L2.53844 0.961723C2.32941 0.752688 2.04589 0.635254 1.75028 0.635254C1.45466 0.635254 1.17114 0.752688 0.96211 0.961723C0.753075 1.17076 0.635641 1.45427 0.635641 1.74989C0.635641 2.04551 0.753075 2.32902 0.96211 2.53805L0.962216 2.53816L7.93234 9.49989L0.968568 16.4553C0.855784 16.5537 0.764013 16.6739 0.6988 16.8087C0.632107 16.9465 0.594629 17.0966 0.588719 17.2497C0.582808 17.4027 0.608592 17.5553 0.664453 17.6979C0.720313 17.8404 0.805044 17.9699 0.913327 18.0782C1.02161 18.1865 1.15111 18.2712 1.29369 18.3271L1.38489 18.0943L1.29369 18.3271C1.43627 18.383 1.58887 18.4087 1.74189 18.4028C1.89491 18.3969 2.04505 18.3594 2.1829 18.2928L2.07403 18.0677L2.18291 18.2928C2.31765 18.2276 2.43779 18.1358 2.53616 18.0231L9.50017 11.0675L16.4621 18.0294L16.4689 18.0363L16.4763 18.0426C16.6888 18.2246 16.9622 18.3197 17.2419 18.3089C17.5215 18.2981 17.7868 18.1822 17.9847 17.9843C18.1826 17.7864 18.2985 17.5211 18.3093 17.2415C18.3201 16.9619 18.225 16.6884 18.0429 16.4759L18.0367 16.4686L18.0298 16.4617L11.068 9.49989Z" fill="#8B5347" stroke="#8B5347" stroke-width="0.5"/>
</svg>
